<?xml version="1.0" encoding="utf-8"?>
<!-- Generator: Adobe Illustrator 14.0.0, SVG Export Plug-In . SVG Version: 6.00 Build 43363)  -->
<!DOCTYPE svg PUBLIC "-//W3C//DTD SVG 1.1//EN" "http://www.w3.org/Graphics/SVG/1.1/DTD/svg11.dtd">
<svg version="1.1" id="Layer_1" xmlns="http://www.w3.org/2000/svg" xmlns:xlink="http://www.w3.org/1999/xlink" x="0px" y="0px"
	 width="612px" height="792px" viewBox="0 0 612 792" enable-background="new 0 0 612 792" xml:space="preserve">
<g>
	<polygon fill-rule="evenodd" clip-rule="evenodd" fill="#FFFFFF" points="209,300 401.756,300 401.756,492.756 209,492.756 
		209,300 	"/>
	<path fill-rule="evenodd" clip-rule="evenodd" d="M389.389,413.322c-7.819,36.428-40.313,63.877-79.02,63.877
		c-44.515,0-80.821-36.305-80.821-80.82c0-44.515,36.306-80.822,80.821-80.822c38.458,0,70.785,27.101,78.869,63.181
		c-8.159-38.323-42.315-67.223-83.01-67.223c-46.74,0-84.862,38.122-84.862,84.862c0,46.742,38.122,84.863,84.862,84.863
		C347.17,481.24,381.496,451.992,389.389,413.322L389.389,413.322z"/>
	<path fill-rule="evenodd" clip-rule="evenodd" d="M296.787,438.574c4.676-0.482,5.293-5.432,3.09-7.592
		c-1.814-1.779-11.825-9.211-14.437-12.133c-1.212-1.355-2.856-2.021-3.552-3.545c-1.601-3.506-2.723-8.51-0.691-12.104
		c0.367-0.648,0.604-0.357,0.322,0.996c-1.595,7.666,3.397,13.928,4.496,10.717c0.759-2.219,0.056-6.188,0.461-9.34
		c0.718-5.578,5.796-16.29,8.026-16.902c-3.44-6.372,4.034-11.359,3.943-16.952c-0.06-3.636,3.194,4.471,6.464,6.19
		c3.652,1.92,7.667-3.618,13.365-6.427c1.612-0.795,3.68-1.708,3.54-2.386c-0.669-3.27-7.484,4.033-13.57,4.279
		c-2.779,0.112-3.81-0.545-4.883-1.582c-3.244-3.135,0.331-0.519,5.153-1.391c2.144-0.388,2.864-0.745,5.139-1.664
		c2.275-0.92,4.875-2.28,7.448-2.979c1.792-0.487,1.644-1.833,0.946-2.238c-0.401-0.233-0.996-0.211-1.468,0.604
		c-1.104,1.91-6.298,3.014-7.918,3.509c-2.081,0.637-4.383,1.232-7.441,1.107c-4.646-0.188-3.563-2.318-6.887-4.224
		c-0.975-0.558-0.711-2.026,0.583-3.321c0.678-0.68,2.538-1.062,3.459-2.606c0.13-0.216,1.318-1.459,2.25-2.103
		c0.322-0.223,0.35-5.896-2.561-6.013c-2.473-0.1-3.176,1.817-3.072,3.727c0.103,1.909,1.115,3.484,1.789,3.477
		c1.298-0.013,0.083,1.42-0.628,1.651c-1.08,0.352-2.56-4.251-2.39-6.461c0.178-2.302,1.376-6.378,4.29-6.299
		c2.624,0.071,4.525,3.361,4.429,9.034c-0.017,0.962,4.254-0.459,5.68,1.046c1.019,1.078-3.492-10.052,6.552-10.818
		c2.647,0.506,5.188,1.387,6.245,7.471c-0.391,0.633,0.658,4.877-0.976,5.381c-1.993,0.615-3.224-0.089-2.071-1.988
		c0.789-1.907,0.019-6.757-4.016-6.465c-4.034,0.291-3.499,7.45-2.394,7.592c1.106,0.141,3.892,2.118,5.836,2.497
		c6.383,1.242,1.693,4.9,2.521,9.33c0.937,5.002,4.23,3.681,7.192,16.926c0.618,0.807,3.071,1.57,5.461,11.746
		c2.149,9.156-0.894,15.814,4.275,15.268c1.164-0.123,2.865-0.449,3.605-3.043c1.935-6.781-0.97-14.86-3.9-20.312
		c-1.708-3.179-3.315-5.344-4.165-6.087c3.36,1.986,7.655,8.328,8.646,13.038c1.302,6.184,2.231,8.803,0.262,15.344
		c1.137,0.568,3.966,1.77,3.966,3.119c-2.946-2.422-11.967-2.852-12.198,2.939c-1.539,0.031-2.702,0.156-3.692,1.332
		c-3.626,4.303-0.26,12.943-0.627,17.578c-0.323,4.078-1.454,8.119-2.092,12.215c-2.159-0.082-1.948-1.662-1.256-3.879
		c0.611-1.955,1.597-4.406,1.661-6.756c0.059-2.127-0.174-3.457-0.71-3.787s-1.377,0.34-2.537,2.209
		c-2.477,3.988-7.841,5.742-12.851,6.369c-5.01,0.629-9.667,0.131-12.133-2.631c-0.843-0.945-2.242,0.258-2.408,0.508
		c-0.222,0.336,0.816,0.988,1.599,2.426c1.144,2.098,2.231,5.281-0.478,6.734C301.515,443.52,299.177,443.088,296.787,438.574
		L296.787,438.574z M294.997,438.379c1.795,2.826,8.122,14.725-2.968,16.268c-3.709,0.518-9.68-2.156-15.466-3.572
		c-5.198-1.271-10.477-2.025-13.431-2.855c-1.779-0.498-2.522-1.137-2.677-1.883c-0.411-1.975,2.16-4.744,2.29-7.082
		c0.13-2.34-0.853-3.555-1.658-5.463c-0.807-1.912-1.017-3.344-0.372-4.164c0.502-0.637,1.522-0.904,3.181-0.742
		c2.104,0.207,4.644-0.223,6.009-1.057c2.299-1.402,3.38-4.275,2.346-7.738c0,3.389-1.111,4.672-3.896,6.221
		c-2.625,1.461-6.677,0.279-8.539,1.896c-2.241,1.943,0.8,6.963,0.551,10.648c-0.191,2.832-3.146,6.021-1.829,8.861
		c1.326,2.857,7.507,3.168,13.953,4.516c9.162,1.918,14.503,5.252,18.736,5.41c6.175,0.229,7.121-6.109,16.817-6.195
		c2.827-0.148,5.594-0.236,8.356-0.271c3.132-0.039,6.259-0.014,9.47,0.064c6.452,0.154,4.233,3.521,8.42,5.674
		c3.532,1.814,9.882,1.098,11.402-0.352c2.056-1.961,7.575-6.678,11.804-8.809c5.273-2.658,17.651-7.23,8.664-12.805
		c-2.094-1.301-7.046-2.674-7.462-12.18c-1.875,1.666-1.658,10.523,3.574,12.281c5.845,1.963,9.495,5.25-1.37,8.965
		c-7.193,2.461-8.416,3.219-14.111,7.959c-5.762,4.797-14.313,2.893-12.82-7.207c0.778-5.262,1.226-9.609-0.084-14.184
		c-0.639-2.234-0.957-5.1-0.521-7.109c0.85-3.908,2.966-5.086,5.039-1.332c1.302,2.354,1.757,5.107,6.417,5.332
		c7.32,0.35,8.771-7.074,11.11-7.412c1.561-0.227,3.12-4.643,1.933-11.787c-1.273-7.65-5.774-19.727-11.546-25.852
		c-4.798-5.091-7.82-9.554-9.722-15.924c-1.598-5.352-2.49-10.562-2.161-15.542c0.427-6.453-3.152-15.432-8.849-19.657
		c-3.566-2.645-9.159-4.061-14.221-4.005c-2.839,0.031-5.511,0.445-7.563,1.56c-8.45,4.587-9.629,11.139-9.503,18.617
		c0.118,7.025,0.357,15.041,1.156,22.666c-0.945,3.501-5.864,10.139-9.014,14.178c-4.235,4.184-6.374,12.269-9.114,19.333
		c-1.461,3.766-3.924,5.467-4.131,10.309c-0.058,1.354-0.011,4.857,1.283,3.855C279.435,413.98,285.634,423.641,294.997,438.379
		L294.997,438.379z M320.705,337.127c-0.267,0.798-1.365,1.463-0.668,2.021c0.698,0.559,1.098-0.781,2.502-1.283
		c0.362-0.129,2.05,0.054,2.36-0.748c0.137-0.35-0.869-0.749-1.469-1.322c-0.599-0.572-1.186-1.081-1.749-1.045
		C320.227,334.844,320.941,336.42,320.705,337.127L320.705,337.127z M329.313,366.254c0.523-0.548,0.792,0.948,2.198,1.835
		c1.115,0.704,2.199,0.183,2.481,1.607c0.201,1.022-0.437,2.13-1.293,1.986C331.208,371.432,327.767,367.878,329.313,366.254
		L329.313,366.254z M306.081,357.266c-2.316-0.173-2.475,1.501-1.708,1.474C305.155,358.712,304.675,357.415,306.081,357.266
		L306.081,357.266z M302.107,352.988c0.274-0.06,0.663,0.407,0.543,1.061c-0.168,0.908-0.095,1.477,0.534,1.479
		c0.104,0,0.216-0.019,0.255-0.255c0.302-1.809-0.638-3.136-1.022-3.235C301.532,351.812,301.64,353.088,302.107,352.988
		L302.107,352.988z M318.971,352.223c0.588,0.175,1.153,1.193,1.276,2.292c0.012,0.102,0.769-0.158,0.775-0.398
		c0.047-1.769-1.463-2.601-1.858-2.564C318.255,351.633,318.511,352.085,318.971,352.223L318.971,352.223z M310.326,357.481
		c2.107-0.976,2.845,0.537,2.116,0.78C311.701,358.51,311.694,357.126,310.326,357.481L310.326,357.481z M284.884,393.374
		c-0.996-0.121,0.29-0.868,0.835-1.81c0.599-1.036,0.483-2.329,1.112-2.138c0.629,0.19,0.279,0.915-0.152,2.102
		C286.312,392.539,285.251,393.418,284.884,393.374L284.884,393.374z"/>
</g>
</svg>
